<svg width="32" height="32" xmlns="http://www.w3.org/2000/svg">
 <!-- Generator: Sketch 55 (78076) - https://sketchapp.com -->

 <title>logo</title>
 <desc>Created with Sketch.</desc>
 <g>
  <title>background</title>
  <rect fill="none" id="canvas_background" height="402" width="582" y="-1" x="-1"/>
 </g>
 <g>
  <title>Layer 1</title>
  <g fill-rule="evenodd" fill="none" id="Web">
   <g fill-rule="nonzero" id="Pedidos">
    <g id="logo">
     <path stroke-dasharray="2,2" fill="#0b2031" id="Shape" d="m1.827896,29.312046c3.042603,1.301849 7.953354,2.853928 14.068878,2.853928c3.459763,0 8.741714,-0.495977 14.258301,-2.858898c0.81131,-0.34754 1.418549,-1.029119 1.666428,-1.870029c0.243835,-0.828121 0.106995,-1.713781 -0.375946,-2.430401c-0.707748,-1.04933 -1.982635,-1.49896 -3.166,-1.17211l-11.848679,-23.402701c-0.082397,-0.163109 -0.249542,-0.26586 -0.432297,-0.26586l-0.000244,0c-0.182526,0 -0.34967,0.10251 -0.432281,0.26539l-11.869614,23.388489c-1.161789,-0.302938 -2.418839,0.14427 -3.121399,1.164301c-0.497391,0.72183 -0.643219,1.618139 -0.400085,2.45928c0.243607,0.842091 0.845871,1.523199 1.652939,1.86861zm14.169968,-27.588782l11.376633,22.470171c-9.868225,4.320431 -18.885651,1.60467 -22.768738,-0.022791l11.392105,-22.447381zm-14.624527,23.811081c0.372406,-0.540239 0.97728,-0.841379 1.598007,-0.841379c0.259949,0 0.522736,0.05279 0.772034,0.16288c3.758759,1.661219 13.670212,4.9884 24.49762,0.017038c0.861511,-0.394878 1.87027,-0.110788 2.400574,0.675901c0.320786,0.475859 0.411697,1.0644 0.249756,1.614349c-0.165955,0.56274 -0.57338,1.019171 -1.117889,1.252371c-5.365524,2.298288 -10.507813,2.780769 -13.876663,2.780769c-5.951218,0 -10.727982,-1.50947 -13.687256,-2.775801c-0.538589,-0.230589 -0.940582,-0.68466 -1.102982,-1.24621c-0.16217,-0.56085 -0.064865,-1.158379 0.2668,-1.639919z"/>
     <path stroke-dasharray="2,2" fill="#0b2031" id="Shape" d="m22.227982,24.917156c1.140152,0 2.067703,-0.927551 2.067703,-2.067701c0,-1.14016 -0.927551,-2.067709 -2.067703,-2.067709c-1.140152,0 -2.067703,0.927549 -2.067703,2.067709c0,1.14015 0.927551,2.067701 2.067703,2.067701zm0,-3.16572c0.605347,0 1.098007,0.49267 1.098007,1.098019c0,0.60535 -0.492661,1.098011 -1.098007,1.098011c-0.605347,0 -1.098007,-0.492661 -1.098007,-1.098011c0,-0.605349 0.492661,-1.098019 1.098007,-1.098019z"/>
     <path stroke-dasharray="2,2" fill="#0b2031" id="Shape" d="m11.842087,21.751436c1.058243,0 1.919266,-0.861031 1.919266,-1.919271c0,-1.05847 -0.861023,-1.919498 -1.919266,-1.919498c-1.058472,0 -1.919495,0.861029 -1.919495,1.919498c0,1.058241 0.861023,1.919271 1.919495,1.919271zm0,-2.869081c0.523682,0 0.949585,0.426142 0.949585,0.94981c0,0.523682 -0.425903,0.949581 -0.949585,0.949581c-0.523666,0 -0.949814,-0.4259 -0.949814,-0.949581c0,-0.523668 0.426147,-0.94981 0.949814,-0.94981z"/>
     <path stroke-dasharray="2,2" fill="#0b2031" id="Shape" d="m16.319122,11.784345c0.890396,0 1.614822,-0.72443 1.614822,-1.61482c0,-0.890389 -0.724426,-1.614579 -1.614822,-1.614579c-0.890381,0 -1.614578,0.72419 -1.614578,1.614579c0,0.89039 0.724197,1.61482 1.614578,1.61482zm0,-2.25971c0.355835,0 0.645126,0.2893 0.645126,0.64489c0,0.35583 -0.289291,0.645121 -0.645126,0.645121c-0.355576,0 -0.644882,-0.28929 -0.644882,-0.645121c0,-0.35559 0.289307,-0.64489 0.644882,-0.64489z"/>
     <path stroke-dasharray="2,2" fill="#0b2031" id="Path" d="m13.470169,14.991964l1.237228,0.660991c0.072678,0.03906 0.151031,0.057289 0.227966,0.057289c0.173294,0 0.340912,-0.09304 0.42804,-0.25639c0.126175,-0.23627 0.03717,-0.52983 -0.199097,-0.65601l-1.237228,-0.660991c-0.236984,-0.12713 -0.530533,-0.03669 -0.656006,0.1991c-0.126175,0.23627 -0.03717,0.52983 0.199097,0.65601z"/>
     <path stroke-dasharray="2,2" fill="#0b2031" id="Path" d="m19.226089,16.064884c0.081192,0.178741 0.257339,0.284332 0.441757,0.284332c0.067001,0 0.135178,-0.013971 0.200287,-0.043322c0.243607,-0.1108 0.351563,-0.398211 0.241013,-0.64205l-0.580032,-1.2777c-0.110794,-0.24361 -0.397949,-0.35085 -0.642044,-0.241c-0.243607,0.11079 -0.351563,0.3982 -0.240997,0.64204l0.580017,1.277699z"/>
     <path stroke-dasharray="2,2" fill="#0b2031" id="Path" d="m15.835938,23.593536c-0.189392,-0.189402 -0.496201,-0.189402 -0.685608,0c-0.189392,0.189388 -0.189392,0.49621 0,0.685598l0.991943,0.991951c0.094711,0.0947 0.21875,0.14205 0.342804,0.14205c0.124069,0 0.248108,-0.04735 0.342819,-0.14205c0.189377,-0.18939 0.189377,-0.49621 0,-0.6856l-0.991959,-0.991949z"/>
     <path stroke-dasharray="2,2" fill="#0b2031" id="Path" d="m17.74527,19.152485c-0.179214,-0.07268 -0.392517,-0.029119 -0.528412,0.106771c-0.092102,0.087358 -0.140625,0.213299 -0.140625,0.339249c0,0.13092 0.048523,0.257101 0.140625,0.344461c0.092087,0.092089 0.213303,0.140388 0.344223,0.140388c0.062973,0 0.126175,-0.00947 0.184189,-0.033859c0.058228,-0.024139 0.111496,-0.062969 0.155304,-0.106529c0.092087,-0.08736 0.145355,-0.213541 0.145355,-0.344461c0,-0.12595 -0.053268,-0.25189 -0.145355,-0.339249c-0.043808,-0.04854 -0.097076,-0.082392 -0.155304,-0.106771z"/>
     <path stroke-dasharray="2,2" fill="#0b2031" id="Path" d="m15.990295,5.838565c0.125946,0 0.252121,-0.04854 0.339249,-0.140631c0.092102,-0.092091 0.145599,-0.21804 0.145599,-0.344219c0,-0.12595 -0.053497,-0.252131 -0.145599,-0.33926c-0.179214,-0.18442 -0.504257,-0.179451 -0.683472,0c-0.092331,0.08713 -0.14064,0.21331 -0.14064,0.33926c0,0.13092 0.048309,0.252129 0.14064,0.344219c0.092087,0.092091 0.218033,0.140631 0.344223,0.140631z"/>
     <path stroke-dasharray="2,2" fill="#0b2031" id="Path" d="m7.72348,23.579325c0.087357,0.0921 0.213303,0.14039 0.339493,0.14039c0.062973,0 0.125946,-0.00947 0.184189,-0.03385c0.062973,-0.024149 0.116486,-0.062981 0.160034,-0.106541c0.092102,-0.092329 0.140625,-0.213539 0.140625,-0.34446c0,-0.12594 -0.048523,-0.25189 -0.140625,-0.339251c-0.043549,-0.048529 -0.097061,-0.08239 -0.160034,-0.10677c-0.174484,-0.07268 -0.392761,-0.029119 -0.523682,0.10677c-0.092087,0.08736 -0.145355,0.21331 -0.145355,0.339251c0,0.13092 0.053268,0.252131 0.145355,0.34446z"/>
    </g>
   </g>
  </g>
 </g>
</svg>